<svg width="32" height="32" viewBox="0 0 32 32" fill="none" xmlns="http://www.w3.org/2000/svg">
<path fill-rule="evenodd" clip-rule="evenodd" d="M15.0147 29.5123C15.0147 29.5123 5.33203 21.3577 5.33203 13.3337C5.33203 10.5047 6.45584 7.79157 8.45623 5.79119C10.4566 3.7908 13.1697 2.66699 15.9987 2.66699C18.8277 2.66699 21.5408 3.7908 23.5412 5.79119C25.5416 7.79157 26.6654 10.5047 26.6654 13.3337C26.6654 21.3577 16.9827 29.5123 16.9827 29.5123C16.444 30.0083 15.5574 30.003 15.0147 29.5123ZM15.9987 18.0003C16.6115 18.0003 17.2184 17.8796 17.7846 17.6451C18.3507 17.4106 18.8652 17.0668 19.2985 16.6335C19.7319 16.2002 20.0756 15.6857 20.3101 15.1195C20.5447 14.5533 20.6654 13.9465 20.6654 13.3337C20.6654 12.7208 20.5447 12.114 20.3101 11.5478C20.0756 10.9816 19.7319 10.4672 19.2985 10.0338C18.8652 9.60049 18.3507 9.25674 17.7846 9.02222C17.2184 8.7877 16.6115 8.66699 15.9987 8.66699C14.761 8.66699 13.574 9.15866 12.6989 10.0338C11.8237 10.909 11.332 12.096 11.332 13.3337C11.332 14.5713 11.8237 15.7583 12.6989 16.6335C13.574 17.5087 14.761 18.0003 15.9987 18.0003Z" fill="#006DFF"/>
</svg>
